<?xml version="1.0" encoding="utf-8"?>
<!-- Generator: Adobe Illustrator 19.1.0, SVG Export Plug-In . SVG Version: 6.00 Build 0)  -->
<svg version="1.1" id="Layer_1" xmlns="http://www.w3.org/2000/svg" xmlns:xlink="http://www.w3.org/1999/xlink" x="0px" y="0px"
	 viewBox="0 0 68.9 69.7" style="enable-background:new 0 0 68.9 69.7;" xml:space="preserve">
<style type="text/css">
	.st0{fill:#F04923;}
</style>
<polygon class="st0" points="34.5,9.9 40.1,6.6 44,11.8 50.5,10.9 52.1,17.2 58.4,18.9 57.6,25.3 62.7,29.3 59.5,34.9 62.7,40.5 
	57.6,44.4 58.4,50.9 52.1,52.6 50.5,58.8 44,58 40.1,63.1 34.5,59.9 28.8,63.1 24.9,58 18.5,58.8 16.8,52.6 10.5,50.9 11.4,44.4 
	6.2,40.5 9.5,34.9 6.2,29.3 11.4,25.3 10.5,18.9 16.8,17.2 18.5,10.9 24.9,11.8 28.8,6.6 "/>
</svg>
