<?xml version="1.0" encoding="utf-8"?>
<!-- Generator: Adobe Illustrator 19.1.0, SVG Export Plug-In . SVG Version: 6.00 Build 0)  -->
<svg version="1.1" id="Layer_1" xmlns="http://www.w3.org/2000/svg" xmlns:xlink="http://www.w3.org/1999/xlink" x="0px" y="0px"
	 viewBox="-243 161 268 258.4" style="enable-background:new -243 161 268 258.4;" xml:space="preserve">
<style type="text/css">
	.st0{fill:#FFFFFF;}
</style>
<g>
	<path class="st0" d="M-38.1,265h-7.8h-18.7h-107.5c2.1-8.2,7.9-15.8,16.9-22c12.3-8.4,28.7-13.1,46.2-13.1c17.6,0,34,4.6,46.2,13.1
		c3.3,2.2,6.1,4.7,8.5,7.3l0.1,0.1c1.2,1.3,2.9,2,4.6,2c1.7,0,3.4-0.6,4.8-1.9c1.3-1.2,2.2-2.9,2.3-4.6c0.2-1.7-0.3-3.3-1.4-4.6l0,0
		c0,0,0,0-0.1-0.1l-0.1-0.1l-1.7-1.7c-0.2-0.2-0.5-0.5-0.7-0.7l-0.2-0.2l0,0c-2.5-2.4-5.3-4.7-8.4-6.8c-14.5-10-33.7-15.5-54-15.5
		s-39.5,5.5-54,15.5c-15.3,10.5-23.7,24.8-23.7,40.2v0.1c0,3.8,3.1,6.8,6.8,6.8h7.8h13.1h43.1v34.8c-14.9-1.1-28.7-5.5-39.3-12.8
		c-3.4-2.4-6.4-4.9-8.8-7.7l0,0l0,0c-0.8-0.8-1.8-1.1-3-1.1c-1.8,0-3.8,0.9-5.5,2.5c-2.7,2.7-3.2,6.5-1.2,8.5
		c0.1,0.1,0.3,0.2,0.4,0.3c3,3.1,6.4,6.1,10.3,8.8c12.9,8.9,29.4,14.2,47.2,15.3v38l5.2,8c0.4,0.6,1,0.9,1.6,0.9s1.3-0.3,1.6-0.9
		l5.2-8v-38c17.7-1.1,34.3-6.4,47.2-15.3c15.5-10.5,23.9-24.8,23.9-40.2C-31.2,268-34.3,265-38.1,265z M-170.8,296.1
		c1.1-1.1,2.5-1.8,3.7-1.8c0.4,0,0.9,0.1,1.3,0.4c0.5,0.5,0.5,1.4,0.4,1.9c-0.2,1.1-0.8,2.3-1.7,3.2c-1.1,1.1-2.5,1.8-3.7,1.8
		c-0.6,0-1-0.2-1.3-0.4C-173,300.4-172.6,298-170.8,296.1z M-56.3,310.1c-12.4,8.5-28.7,13.8-45.9,14.9l-2.3,0.1v2.3v37.3l-4.5,6.9
		l-4.5-6.9v-37.3v-2.3l-2.3-0.1c-17.3-1.1-33.6-6.4-45.9-14.9c-2.8-1.9-5.3-4-7.7-6.2c1.4-0.3,2.8-1.1,4-2.4c1.2-1.2,2-2.7,2.3-4
		c2,1.8,4.1,3.6,6.4,5.2c11,7.6,25,12.2,40.5,13.3l2.6,0.2v-2.6v-34.8v-2.4h-2.4h-43h-13.1h-7.8c-2.4,0-4.4-2-4.4-4.4v-0.1
		c0-14.6,8.1-28.1,22.7-38.2c14.1-9.7,32.8-15.1,52.7-15.1s38.6,5.4,52.7,15.1c3.1,2.2,6,4.5,8.5,7l2,2c0.7,0.8,1,1.8,0.9,2.9
		c-0.1,1.2-0.7,2.2-1.6,3.1c-1.8,1.7-4.5,1.7-6,0.1c-0.1-0.1-1.4-1.6-2.7-2.7l0,0c-1.9-1.8-4-3.5-6.3-5
		c-12.7-8.7-29.6-13.5-47.6-13.5s-34.9,4.8-47.6,13.5c-9.4,6.4-15.6,14.5-17.8,23.3l-0.8,3h3.1h107.6h18.7h7.8c2.5,0,4.5,2,4.5,4.5
		C-33.6,286.5-41.7,300-56.3,310.1z"/>
	<path class="st0" d="M-102.1,276.4h-2.4v2.4v34.8v2.6l2.6-0.2c15.5-1.1,29.5-5.7,40.5-13.3c9.4-6.5,15.6-14.6,17.9-23.4l0.8-3h-3.1
		h-56.3V276.4z M-62.8,300.8c-10.6,7.3-24.4,11.8-39.3,12.8v-34.8h56.2C-48,286.9-53.8,294.6-62.8,300.8z"/>
</g>
</svg>
